<svg width="88" height="88" viewBox="0 0 380 342" xmlns="http://www.w3.org/2000/svg" class="nav-logo">    <g fill="none" fill-rule="evenodd">  <path d="M185.398 341.13l68.013-209.322H117.39L185.4 341.13z" fill="#666" class="logo-svg-shape logo-dark-orange-shape"></path> <path d="M185.398 341.13l-68.013-209.322h-95.32L185.4 341.128z" fill="#666" class="logo-svg-shape logo-orange-shape"></path> <path d="M22.066 131.808l-20.67 63.61c-1.884 5.803.18 12.16 5.117 15.744L185.398 341.13 22.066 131.807z" fill="#666" class="logo-svg-shape logo-light-orange-shape"></path> <path d="M22.066 131.808h95.32L76.42 5.735c-2.107-6.487-11.284-6.487-13.39 0L22.065 131.808z" fill="#666" class="logo-svg-shape logo-dark-orange-shape"></path> <path d="M185.398 341.13l68.013-209.322h95.32L185.4 341.128z" fill="#666" class="logo-svg-shape logo-orange-shape"></path> <path d="M348.73 131.808l20.67 63.61c1.884 5.803-.18 12.16-5.117 15.744L185.398 341.13 348.73 131.807z" fill="#666" class="logo-svg-shape logo-light-orange-shape"></path> <path d="M348.73 131.808h-95.32L294.376 5.735c2.108-6.487 11.285-6.487 13.392 0l40.963 126.073z" fill="#666" class="logo-svg-shape logo-dark-orange-shape"></path> </g> </svg>